<svg id="Layer_1" data-name="Layer 1" xmlns="http://www.w3.org/2000/svg" viewBox="0 0 216 273.33"><defs><style>.cls-1{fill:none;stroke:#00aeef;stroke-linecap:round;stroke-linejoin:round;stroke-width:4px;}.cls-2{fill:#00aeef;}.cls-3{font-size:32px;fill:#231f20;font-family:OpenSans, Open Sans;}</style></defs><title>Abdomin</title><circle class="cls-1" cx="107.23" cy="20.56" r="15.45"/><path class="cls-1" d="M81.54,40.54h49.18a10.25,10.25,0,0,1,6.35,1c3.32,1.72,4.64,5.26,5.39,7.61,2.22,6.91,6.2,25.26,10.44,49.92a9.51,9.51,0,0,1-17.38,6.85L127.22,63.7q-.16,61.07-.32,122.15a8.93,8.93,0,0,1-7.93,7,9,9,0,0,1-9.2-8l-.16-60.35h-5.47l.16,60.76a9,9,0,0,1-7.53,7.59,9.14,9.14,0,0,1-9.84-7.61q-.16-60-.32-119.92l-6.66,37.12c-1.64,5.82-7.73,8.52-12.06,6.66-3.41-1.46-5.59-5.7-4.76-10.15L71.7,45.3a12.9,12.9,0,0,1,9.84-4.76Z"/><rect class="cls-2" x="85.66" y="84.56" width="42.41" height="39.66"/><text class="cls-3" transform="translate(15.46 226.07)">ABDOMINAL</text></svg>