<svg id="Layer_1" data-name="Layer 1" xmlns="http://www.w3.org/2000/svg" viewBox="0 0 216 273.5"><defs><style>.cls-1,.cls-2{fill:none;stroke:#00aeef;}.cls-1{stroke-linecap:round;stroke-linejoin:round;stroke-width:4px;}.cls-2{stroke-width:0;}.cls-3{font-size:32px;fill:#231f20;font-family:OpenSans, Open Sans;}</style></defs><title>Breathing</title><path class="cls-1" d="M72.1,50.26C61.76,51.09,55,60.7,45.85,74.32c-20.36,30.48-30.61,46-34.06,58.12-4.29,15.09-9.14,32.18,0,43.12,6.42,7.69,16.8,8.8,25,9.69,5.45.59,24.71,2.66,40.31-10.94a48.49,48.49,0,0,0,14.69-24.06l-.94-78.43c.17-1,1.76-10.87-5-17.19C80.45,49.59,73.3,50.16,72.1,50.26Z"/><path class="cls-1" d="M145.16,49.91c10.14.85,16.82,10.64,25.74,24.52,20,31.07,30,46.86,33.41,59.24,4.2,15.38,9,32.8,0,43.95-6.3,7.83-16.48,9-24.52,9.87-5.35.6-24.24,2.71-39.54-11.15a49.86,49.86,0,0,1-14.4-24.52l.92-79.94c-.17-1-1.73-11.07,4.9-17.52C137,49.23,144,49.81,145.16,49.91Z"/><path class="cls-1" d="M91.68,92.25a37.58,37.58,0,0,0,6.48-13.8,36.91,36.91,0,0,0,1-8.17q-.28-30.69-.56-61.39l17.32-.28L116.32,70a28.06,28.06,0,0,0,.28,7.6c1.49,7.33,6.27,12.5,9.92,15.65"/><path class="cls-1" d="M91.92,116.25a34,34,0,0,0,15.68-14.42,34.3,34.3,0,0,0,18.41,15"/><path class="cls-1" d="M89.15,111.82,71.13,130l-2,29"/><path class="cls-1" d="M78.17,118.16a23.36,23.36,0,0,1-13.09-9.29,19.28,19.28,0,0,1,1.27-24.22"/><path class="cls-1" d="M63.52,109.29a31.81,31.81,0,0,0-16.44,4.18,31.37,31.37,0,0,0-9.19,8.07"/><path class="cls-1" d="M69,132.1a38,38,0,0,0-36,11.69"/><path class="cls-1" d="M68.08,133.75c-2.75,10.2-7.26,14.72-11,16.93-4.2,2.46-7.6,2.14-11.69,5.49-4.35,3.57-6.18,8.6-7,12.39"/><path class="cls-1" d="M126.47,113.9l19.61,19.55,2.14,31.22"/><path class="cls-1" d="M138.42,120.72a25.42,25.42,0,0,0,14.24-10,20.59,20.59,0,0,0-1.38-26.07"/><path class="cls-1" d="M154.34,111.17a34.9,34.9,0,0,1,17.88,4.5,34,34,0,0,1,10,8.68"/><path class="cls-1" d="M148.37,135.72a42.11,42.11,0,0,1,22.06,1.36,41.62,41.62,0,0,1,17.15,11.22"/><path class="cls-1" d="M148.67,137.42c3.4,11.14,8.54,16,12.72,18.31,4.59,2.57,8.29,2.28,12.71,5.91,4.73,3.89,6.72,9.34,7.66,13.34"/><rect id="_Slice_" data-name="&lt;Slice&gt;" class="cls-2" x="111.5" y="12.5" width="1" height="16"/><text class="cls-3" transform="translate(39.06 226.69)">TROUBLE <tspan x="-13.53" y="38.4">BREATHING</tspan></text></svg>