<svg id="Layer_1" data-name="Layer 1" xmlns="http://www.w3.org/2000/svg" viewBox="0 0 216 273.83"><defs><style>.cls-1{fill:none;stroke:#00aeef;stroke-linecap:round;stroke-linejoin:round;stroke-width:5px;}.cls-2{font-size:32px;fill:#231f20;font-family:OpenSans, Open Sans;}</style></defs><title>Broken</title><path class="cls-1" d="M84.74,65.46,145.16,31a6.58,6.58,0,0,0,3.94-2.52c1.12-1.7.75-3.49.73-5.18a16.65,16.65,0,0,1,4.4-10.76c4.76-5.1,12.59-4.29,14-4.11,1.19.15,7.74,1,11.67,6.37a15.81,15.81,0,0,1,3,8.07c.26,4.07-1.43,5.83-.11,8.18,1,1.75,2.44,1.83,5.27,3.45A21.65,21.65,0,0,1,195,41.19a18.18,18.18,0,0,1,1.2,17.37c-.25.53-4.14,8.34-12.54,9.68-3.66.58-10.06.23-12.72-3.11A4.86,4.86,0,0,0,168.21,63a4.92,4.92,0,0,0-3.75,1.14l-25,14.13c-3.09,0-7.56-.17-13-.49-6.29-.37-9.48-.57-11.4-1.27-7-2.55-7.46-7.6-13.4-10.66C98.52,64.21,93.28,62.92,84.74,65.46Z"/><path class="cls-1" d="M81,94.13,47.15,128.79A5.38,5.38,0,0,1,44,130.91c-1.62.28-2.87-.55-4-1.06-2.8-1.25-5.51-.83-8.6-.35-6.1.95-13.85,7.74-14.26,16.86-.26,5.72,2.42,11.41,6.37,14.38a20.3,20.3,0,0,0,5.89,3.06c3.15.91,4.66.29,6.37,1.65,1.38,1.1,1.58,2.44,2.48,5.3,1,3.1,2.12,6.78,3.54,9,3,4.61,9.64,6.31,14.62,6a18.78,18.78,0,0,0,11.79-5.3c1.65-1.6,5.59-5.41,5.42-10.26-.07-2-.79-3-1.65-9a7.62,7.62,0,0,1,.35-4.24,7,7,0,0,1,2.24-2.83l63.42-63.18c-12.14,7.08-19.76,6.71-24.52,5-6.17-2.28-9.24-7.51-15.21-6.48C94.91,90,93.4,92,87.46,93.31A34.89,34.89,0,0,1,81,94.13Z"/><text class="cls-2" transform="translate(43.69 226.69)">BROKEN<tspan x="19.71" y="38.4">BONE</tspan></text></svg>