<svg id="Layer_1" data-name="Layer 1" xmlns="http://www.w3.org/2000/svg" viewBox="0 0 216 273.33"><defs><style>.cls-1{fill:none;stroke:#00aeef;stroke-linecap:round;stroke-linejoin:round;stroke-width:4px;}.cls-2{font-size:32px;fill:#231f20;font-family:OpenSans, Open Sans;}</style></defs><title>Burn</title><path class="cls-1" d="M107.38,98.35c7.34,14.65,8.33,26.34,2.75,34.69-5.21,7.79-16.39,6.73-20.67-.62-4.1-7,.87-14.42.84-27.09C77.46,118.28,70.41,137,70.41,151c0,17.82,14.15,32.27,31.59,32.27s31.29-14.5,32.48-32.27C135.54,135.55,132.49,109.89,107.38,98.35Z"/><path class="cls-1" d="M170.52,115a68.13,68.13,0,0,1-68.13,68.13c-37.62,0-61-25.69-61-61,0-43,45.72-56.48,61-104C130.18,28.54,170.52,77.43,170.52,115Z"/><text class="cls-2" transform="translate(64.84 225.96)">BURN</text></svg>