<svg id="Layer_1" data-name="Layer 1" xmlns="http://www.w3.org/2000/svg" viewBox="0 0 216 273.33"><defs><style>.cls-1{fill:none;stroke:#00aeef;stroke-linecap:round;stroke-linejoin:round;stroke-width:4px;}.cls-2{fill:#00aeef;}.cls-3{font-size:32px;fill:#231f20;font-family:OpenSans, Open Sans;}</style></defs><title>Chest</title><circle class="cls-1" cx="110.81" cy="20.3" r="15.3"/><path class="cls-1" d="M85.36,40.1h48.71a10.16,10.16,0,0,1,6.29.94c3.29,1.7,4.59,5.21,5.34,7.54,2.2,6.85,6.14,25,10.34,49.45a9.42,9.42,0,0,1-17.22,6.78L130.61,63q-.16,60.49-.31,121a8.84,8.84,0,0,1-7.86,6.91,8.93,8.93,0,0,1-9.11-7.91l-.16-59.78h-5.42l.16,60.18a9,9,0,0,1-7.46,7.52,9.06,9.06,0,0,1-9.74-7.54Q90.54,124,90.38,64.61l-6.6,36.77c-1.63,5.76-7.66,8.44-11.94,6.6-3.37-1.45-5.53-5.65-4.71-10.06l8.48-53.11a12.77,12.77,0,0,1,9.74-4.71Z"/><rect class="cls-2" x="89.44" y="40.33" width="42.01" height="39.29"/><text class="cls-3" transform="translate(62.76 226.08)">CHEST</text></svg>