<svg id="Layer_1" data-name="Layer 1" xmlns="http://www.w3.org/2000/svg" viewBox="0 0 216 273.83"><defs><style>.cls-1{fill:none;stroke:#00aeef;stroke-linecap:round;stroke-linejoin:round;stroke-width:4px;}.cls-2{font-size:32px;fill:#231f20;font-family:OpenSans, Open Sans;}</style></defs><title>Cough</title><path class="cls-1" d="M43.5,166.33c5.27-19.17,2.89-31.88-.33-40-2-5-3.64-6.67-8.67-17.67-5.39-11.8-8.5-18.59-10-25.33-3.15-14.17.08-31.21,9.33-44.67C48,18.09,70.44,14.3,76.17,13.33,82.58,12.25,108.43,7.88,126.5,25c10.67,10.11,18.16,27.27,16.24,35.62a13.64,13.64,0,0,0,.09,7.71c.53,1.57,1.43,3.07,6,7.33,5.6,5.21,8.17,6.6,11.33,11,2.59,3.6,2.6,5.07,2.33,6-.41,1.4-1.57,2-6,4.33-7.45,4-8.6,4.76-9.33,6.33-.45,1-.52,2.64-.67,6-.12,2.66-.07,4.85,0,6.33H136.17c-8.41,0-10.73-.05-13.67,1.33-1.59.75-5.9,2.82-6.67,7-.68,3.75,1.83,7.36,4.33,9.17,1.38,1,3.19,1.75,12,1.94,4.34.09,7.92,0,10.34-.1.18,3.66.07,12.16-5.4,20a23.41,23.41,0,0,1-8.27,7.71c-5.1,2.72-9.91,2.6-14,2.5a27.55,27.55,0,0,1-12-2.5A25.24,25.24,0,0,1,96.17,158l.67,10"/><path class="cls-1" d="M131.17,76.33l-21.33-4.67"/><path class="cls-1" d="M157.5,127l.24-.09"/><path class="cls-1" d="M168.75,119.08,169,119"/><path class="cls-1" d="M168,134.67l.24-.09"/><path class="cls-1" d="M180.09,127l.24-.09"/><path class="cls-1" d="M179.73,142.58l.24-.09"/><path class="cls-1" d="M180,111.42l.24-.09"/><path class="cls-1" d="M192.83,119.17l.24-.09"/><path class="cls-1" d="M192.46,134.71l.24-.09"/><path class="cls-1" d="M192.71,103.55l.24-.09"/><path class="cls-1" d="M192.34,149.51l.24-.09"/><text class="cls-2" transform="translate(52.18 226.69)">COUGH</text></svg>