<svg id="Layer_1" data-name="Layer 1" xmlns="http://www.w3.org/2000/svg" viewBox="0 0 216 273.5"><defs><style>.cls-1{fill:none;stroke:#00aeef;stroke-linecap:round;stroke-linejoin:round;stroke-width:5px;}.cls-2{font-size:32px;fill:#231f20;font-family:OpenSans, Open Sans;}</style></defs><title>Diarheah</title><circle class="cls-1" cx="138.79" cy="30.41" r="20.84"/><path class="cls-1" d="M73.07,125l.36-57.54L33.2,66.91q.09,21.12.18,42.23l15.66,20,93.21-.18a32.44,32.44,0,0,1-.73,14.56c-3.38,11.76-12.55,17.74-15.11,19.3l.18,15.47L68,178.51l-.18-13.29a34.45,34.45,0,0,1-18-34.22"/><path class="cls-1" d="M91.22,127.54A53,53,0,0,1,86.9,113C84.25,94.6,92.24,80.4,95.28,75.29c4-6.76,9.6-16.15,20.21-19.84a23.1,23.1,0,0,1,14.2-.91,21.57,21.57,0,0,1,8.74,4.92l15.29,28.4a8.09,8.09,0,0,0,6.74,4.55l28.76.18a11.26,11.26,0,0,1,4.92,8.37,10.86,10.86,0,0,1-5.28,9.83H128a40.45,40.45,0,0,1,2.73-26.4,61.17,61.17,0,0,0,11.54,22c1,1.17,2,2.27,3,3.29"/><path class="cls-1" d="M160.81,113.34l-5.46,58.8a8.57,8.57,0,0,1-5.28,6.92c-3.93,1.36-9-1-10.92-6l.73-22.94"/><text class="cls-2" transform="translate(31.14 226.69)">DIARRHEA</text></svg>