<svg id="Layer_1" data-name="Layer 1" xmlns="http://www.w3.org/2000/svg" viewBox="0 0 216 273.33"><defs><style>.cls-1{fill:none;stroke-linecap:round;stroke-linejoin:round;stroke-width:4px;}.cls-1,.cls-3{stroke:#00aeef;}.cls-2{fill:#00aeef;}.cls-3{stroke-miterlimit:10;}.cls-4{font-size:32px;fill:#231f20;font-family:OpenSans, Open Sans;}</style></defs><title>Extremities</title><circle class="cls-1" cx="110.24" cy="20.48" r="15.27"/><path class="cls-1" d="M84.85,40.23h48.59a10.13,10.13,0,0,1,6.27.94c3.28,1.7,4.58,5.2,5.33,7.52,2.19,6.83,6.13,25,10.32,49.34a9.39,9.39,0,0,1-17.18,6.77L130,63.12q-.16,60.35-.31,120.7a8.82,8.82,0,0,1-7.84,6.9,8.91,8.91,0,0,1-9.09-7.89l-.16-59.63h-5.41l.16,60a8.93,8.93,0,0,1-7.45,7.5,9,9,0,0,1-9.72-7.52Q90,123.94,89.86,64.69l-6.58,36.68c-1.62,5.75-7.64,8.42-11.91,6.58-3.37-1.45-5.52-5.63-4.7-10l8.46-53a12.74,12.74,0,0,1,9.72-4.7Z"/><rect class="cls-2" x="90.02" y="122.61" width="17.85" height="62.39"/><rect class="cls-2" x="113.51" y="122.61" width="16.17" height="60.27"/><ellipse class="cls-2" cx="98.69" cy="184.69" rx="6.66" ry="4.86"/><ellipse class="cls-2" cx="121.19" cy="184.22" rx="7.45" ry="5.79"/><ellipse class="cls-3" cx="121.39" cy="180.3" rx="0.2" ry="0.47"/><path class="cls-2" d="M89.84,41.72q0,11.48,0,23l-6.58,36.68a8,8,0,0,1-15.86-2.11L75.89,46a11.62,11.62,0,0,1,4.23-3.76A12.51,12.51,0,0,1,89.84,41.72Z"/><path class="cls-2" d="M129,41.1l.78,21.16,9.25,41.85a8.13,8.13,0,0,0,15.21-4.55L144.08,48.62A11.58,11.58,0,0,0,139.22,42,12,12,0,0,0,129,41.1Z"/><text class="cls-4" transform="translate(7.89 225.96)">EXTREMETIES</text></svg>