<svg id="Layer_1" data-name="Layer 1" xmlns="http://www.w3.org/2000/svg" viewBox="0 0 216 273.83"><defs><style>.cls-1{fill:none;stroke:#00aeef;stroke-linecap:round;stroke-linejoin:round;stroke-width:4px;}.cls-2{font-size:32px;fill:#231f20;font-family:OpenSans, Open Sans;}</style></defs><title>General</title><circle class="cls-1" cx="112.87" cy="20.23" r="15.4"/><path class="cls-1" d="M87.26,41.1h49a10.22,10.22,0,0,1,6.32.95c3.31,1.71,4.62,5.25,5.38,7.59,2.21,6.89,6.18,25.18,10.41,49.76a9.47,9.47,0,0,1-17.33,6.82l-8.26-42q-.16,60.87-.32,121.74a8.9,8.9,0,0,1-7.91,7,9,9,0,0,1-9.17-8l-.16-60.15h-5.46l.16,60.56a9,9,0,0,1-7.51,7.57,9.11,9.11,0,0,1-9.8-7.59q-.16-59.77-.32-119.53l-6.64,37c-1.64,5.8-7.71,8.49-12,6.64-3.39-1.46-5.57-5.68-4.74-10.12l8.54-53.44a12.85,12.85,0,0,1,9.8-4.74Z"/><text class="cls-2" transform="translate(63.04 226.69)">ADULT<tspan x="-27" y="38.4">(19-64 yrs)</tspan></text></svg>