<svg id="Layer_1" data-name="Layer 1" xmlns="http://www.w3.org/2000/svg" viewBox="0 0 216 273.33"><defs><style>.cls-1{fill:#00aeef;}.cls-2{fill:none;stroke:#00aeef;stroke-linecap:round;stroke-linejoin:round;stroke-width:4px;}.cls-3{font-size:32px;fill:#231f20;font-family:OpenSans, Open Sans;}</style></defs><title>Head</title><circle class="cls-1" cx="107.23" cy="18.05" r="15.48"/><path class="cls-2" d="M81.48,38.08h49.27a10.27,10.27,0,0,1,6.36,1c3.33,1.72,4.65,5.27,5.4,7.63,2.22,6.93,6.22,25.31,10.46,50a9.52,9.52,0,0,1-17.42,6.86l-8.3-42.26q-.16,61.19-.32,122.38a8.94,8.94,0,0,1-7.95,7,9,9,0,0,1-9.22-8l-.16-60.46h-5.48l.16,60.87a9.06,9.06,0,0,1-7.55,7.61A9.16,9.16,0,0,1,86.89,183q-.16-60.08-.32-120.16l-6.68,37.19c-1.65,5.83-7.75,8.54-12.08,6.68C64.4,105.27,62.22,101,63,96.57l8.58-53.72a12.92,12.92,0,0,1,9.85-4.77Z"/><text class="cls-3" transform="translate(64.97 226.08)">HEAD</text></svg>