<svg id="Layer_1" data-name="Layer 1" xmlns="http://www.w3.org/2000/svg" viewBox="0 0 216 273.5"><defs><style>.cls-1,.cls-2{fill:none;stroke:#00aeef;stroke-linecap:round;stroke-linejoin:round;stroke-width:4px;}.cls-1{opacity:0.99;isolation:isolate;}.cls-3{font-size:32px;fill:#231f20;font-family:OpenSans, Open Sans;}</style></defs><title>Infant</title><g id="layer1"><path id="rect3801" class="cls-1" d="M108.91,34.1a25.57,25.57,0,1,0,25.38,25.57A25.47,25.47,0,0,0,108.91,34.1ZM94.39,88.42c-3.68,0-7.23.49-10.3,3L63.76,111.92c-3.5,3.53-3.76,8.94-.59,12.14s8.57,2.93,12.08-.6l10.2-10.27v9.28h46.92v-9.31l10.23,10.31c3.5,3.53,8.87,3.79,12,.6s2.88-8.61-.63-12.14L133.69,91.44c-3.25-2.65-6.72-3-10.26-3h-29Zm38,38.47-8.05,6.75-9.5,8,6.37,11.1-2.64,2.86c-3.77,4-4.46,9.79-1.52,12.93s8.38,2.43,12.14-1.6l10-10.71a11.68,11.68,0,0,0,3.3-8.28,12.81,12.81,0,0,0-1.29-5.69Zm-46.92,0-8.81,15.33a10,10,0,0,0-1.32,5.69,11.72,11.72,0,0,0,3.33,8.28l10,10.71c3.77,4,9.17,4.74,12.11,1.6s2.28-8.91-1.48-12.93l-2.67-2.86,6.37-11.1-9.5-8-8-6.72Z"/></g><path class="cls-2" d="M85.29,122.16a3.91,3.91,0,0,0,.15,4.76"/><path class="cls-2" d="M132.54,122.13a4.21,4.21,0,0,1,.8,2.2,4.3,4.3,0,0,1-.93,2.9"/><path class="cls-2" d="M103.24,141.7a9.11,9.11,0,0,0,11.57-.09"/><text class="cls-3" transform="translate(58.99 226.69)">INFANT<tspan x="-3.48" y="38.4">(0-2 yrs)</tspan></text></svg>