<svg id="Layer_1" data-name="Layer 1" xmlns="http://www.w3.org/2000/svg" viewBox="0 0 216 273.83"><defs><style>.cls-1,.cls-3{fill:none;stroke:#00aeef;stroke-linejoin:round;stroke-width:4px;}.cls-2{fill:#00aeef;}.cls-3{stroke-linecap:round;}</style></defs><title>Medicine</title><path class="cls-1" d="M121.67,41.15H33V149c0,5.1,5.93,10.47,11,10.47h67.77c5.1,0,9.92-5.37,9.92-10.47Z"/><rect class="cls-1" x="42.81" y="16.5" width="69" height="24.64"/><rect class="cls-2" x="50.15" y="25.74" width="6.16" height="6.16"/><rect class="cls-2" x="62.47" y="25.74" width="6.16" height="6.16"/><rect class="cls-2" x="74.79" y="25.74" width="6.16" height="6.16"/><rect class="cls-2" x="87.11" y="25.74" width="6.16" height="6.16"/><rect class="cls-2" x="99.43" y="25.74" width="6.16" height="6.16"/><polygon class="cls-2" points="94.56 92.9 79.78 92.9 79.78 78.11 74.85 78.11 74.85 92.9 60.06 92.9 60.06 97.83 74.85 97.83 74.85 112.61 79.78 112.61 79.78 97.83 94.56 97.83 94.56 92.9"/><rect class="cls-3" x="153.87" y="150.06" width="45.19" height="15.58" rx="6.82" ry="6.82" transform="translate(-39.38 60.54) rotate(-17.55)"/><line class="cls-3" x1="177.83" y1="164.78" x2="173.61" y2="151.4"/><rect class="cls-3" x="147.23" y="106.06" width="15.29" height="44.34" rx="6.69" ry="6.69" transform="translate(-38.1 184.72) rotate(-55.94)"/><line class="cls-3" x1="150.38" y1="133.5" x2="158.09" y2="122.1"/></svg>