<svg id="Layer_1" data-name="Layer 1" xmlns="http://www.w3.org/2000/svg" viewBox="0 0 216 216"><defs><style>.cls-1{fill:none;stroke:#00aeef;stroke-linecap:round;stroke-linejoin:round;stroke-width:4px;}</style></defs><title>Poison</title><path class="cls-1" d="M72.41,105.43c3.1,1,4,.28,6.36,1.11,4.3,1.53,4.64,5.19,7.87,8.51,5.53,5.69,14.77,5.5,18.74,5.42,4.42-.09,12.5-.26,17-5.41,2.8-3.21,2-5.86,5.57-8.19,2.71-1.77,4.34-1,9-2.76,1.82-.68,5.61-2.1,7.91-4.46,4.51-4.63.86-10.58,2.47-19.75S153.44,69.52,156,62.2c4.31-12.37-2.27-26.84-8.33-34.2-18-21.89-65.21-21.52-84.55,1.18-1,1.13-14.22,17.12-10.18,33.31,2.24,9,8.11,11.3,8.95,22.7.45,6.19-.81,11.46,3.09,15.63A17.94,17.94,0,0,0,72.41,105.43Z"/><path class="cls-1" d="M87.18,65.74c-6.08.38-9.73,6.67-10.8,10.91-1.26,5-.44,13.26,5.55,15.63,5.78,2.28,12.64-2.38,15.43-7.37,2.36-4.23,2.74-10.36-.93-14.74C96,69.59,92.36,65.42,87.18,65.74Z"/><path class="cls-1" d="M123.36,91.45c-6.14-.38-9.83-6.6-10.9-10.79-1.27-5-.44-13.12,5.61-15.46,5.83-2.26,12.76,2.35,15.58,7.29,2.39,4.18,2.76,10.25-.93,14.59C132.22,87.64,128.59,91.77,123.36,91.45Z"/><path class="cls-1" d="M83,111.88l.15,12.23a29.2,29.2,0,0,0,42.14.43l-.18-12.22"/><path class="cls-1" d="M92.2,119.8l-.06,10.28"/><path class="cls-1" d="M104.58,121.57v10.95"/><path class="cls-1" d="M117.19,119.69,117.08,130"/><path class="cls-1" d="M131.31,159l32.77,11.47a16.12,16.12,0,0,1,14.65-5.89c7.59,1.14,13.56,8.32,11.64,14.32-1.46,4.56-7.15,6.59-8.23,7,.21.51,2.78,7.08-1.73,12.12a15,15,0,0,1-16.55,3.5c-5.81-2.4-8.92-8.14-7.36-13.65L106.68,168.6"/><path class="cls-1" d="M80.78,158.54l-32-12.2c-3.45,5-10.09,7.46-16.37,6.2-5.91-1.18-11.27-5.65-11.52-11.56-.22-5,3.21-9.67,8.66-11.83-.46-1.59-1.43-5.86,1.12-9.7,4.17-6.27,15.79-8.39,23.28-3.8a14.42,14.42,0,0,1,6.57,15L106.67,149"/><path class="cls-1" d="M182.68,119.45c-3.91-4.57-12.7-5.84-17.59-1.93-4.48,3.58-3.23,9.53-3.13,9.95L49,171.38c-5.26-6-14.39-7.5-20.78-4.12-5.46,2.88-8.69,9.22-6.55,14.78,1.68,4.36,6,6.46,7.19,7-.28,1.25-1.1,5.62,1.83,9.1,4.72,5.6,16.74,6,21.78.45,3.45-3.78,2.31-8.86,2-9.92l116.83-45.4a12.91,12.91,0,0,0,14.48,2.94c4.29-1.94,7-6.35,5.9-10.66-1.25-5-6.75-6.86-7.19-7C184.73,127.72,185.85,123.15,182.68,119.45Z"/><path class="cls-1" d="M97.33,105.33l7.5-9.33,7.64,9.32Z"/></svg>