<svg id="Layer_1" data-name="Layer 1" xmlns="http://www.w3.org/2000/svg" viewBox="0 0 216 273.83"><defs><style>.cls-1{fill:none;stroke:#00aeef;stroke-linecap:round;stroke-linejoin:round;stroke-width:4px;}.cls-2{font-size:32px;fill:#231f20;font-family:OpenSans, Open Sans;}</style></defs><title>Rash</title><path class="cls-1" d="M146.58,111.91c1,5.5,17.51,8.07,19.08,17.81.73,6.49-1.8,7.37-3.1,7.52-2.24.25-3.46-4.27-7.86-7.24a44.86,44.86,0,0,0-12.87-6.08c-2.72-.7-4.23-1.25-5.67-1.65-4.34-1.21-10.52-3.72-18-9.59L9.67,116"/><path class="cls-1" d="M151.57,71.27a53.23,53.23,0,0,0-15,.77c-4.45.88-9.16,1.85-14,5.35a27.81,27.81,0,0,0-4.87,4.5L11.5,77.27"/><path class="cls-1" d="M146.58,111.91s27.16,1.67,39,2.95c8.69.94,16.81,2.5,17.43-2.93.57-5-7.82-5.28-16.57-6.73a138.21,138.21,0,0,1-19.83-4.74"/><path class="cls-1" d="M151.57,71.27A207.11,207.11,0,0,1,173.64,58c3-1.58,9.29-4.62,11.51-1.46,1.32,1.87-3.08,6.18-5.82,7.31L159.72,76.78"/><path class="cls-1" d="M159.72,76.78s21.21-2.64,28.1-4.38c6.66-1.69,10.32-2.72,10.75,1.11.27,2.43-2.62,4.24-5.35,5.28-3.34,1.27-28.36,8.53-28.36,8.53-2.43,1.07-2.4,2.49,2,2.64,0,0,30-1.48,33.19-1.39,2.86.08,5.48.38,5.85,3.7.43,3.83-4.49,4.31-7,4.25l-32.37,3.93"/><circle class="cls-1" cx="60.29" cy="90.02" r="1.99"/><circle class="cls-1" cx="64.27" cy="105.18" r="1.99"/><circle class="cls-1" cx="96.37" cy="97.98" r="1.99"/><circle class="cls-1" cx="82.45" cy="104.63" r="1.99"/><circle class="cls-1" cx="73.13" cy="95.99" r="1.99"/><circle class="cls-1" cx="85.52" cy="89.42" r="1.99"/><text class="cls-2" transform="translate(67.4 226.69)">RASH</text></svg>