<svg id="Layer_1" data-name="Layer 1" xmlns="http://www.w3.org/2000/svg" viewBox="0 0 216 273.5"><defs><style>.cls-1{fill:none;stroke:#00aeef;stroke-linecap:round;stroke-linejoin:round;stroke-width:4px;}.cls-2{font-size:32px;fill:#231f20;font-family:OpenSans, Open Sans;}</style></defs><title>Senior</title><path class="cls-1" d="M94.81,36C90,35.61,86.13,38.32,84,39.79c-5,3.48-8.52,8.56-14.21,25.82-6.06,18.37-9,27.7-6.48,35.2.93,2.72,4.27,7,10.95,15.61,13.08,16.83,12.88,14.11,15.47,19,6.33,11.88,2.93,19.57,10.84,37,1.33,2.94,3.32,6.89,7.1,7.88,3.56.93,7.83-1,9.84-4.08,2.49-3.83.86-8.47-1.34-16.23-6.56-23.18-3.23-21.59-7.18-29.14-5.09-9.74-9.14-9.57-15.26-22-2.3-4.68-3.95-8-4.74-12.77C86.8,82.63,93,67.15,98.5,67c2.92-.1,8.11,8.61,18.49,26a50.11,50.11,0,0,0,6.16,7.7c4.11,4.36,5.9,4.95,7.31,5a8,8,0,0,0,6-2.66,8.86,8.86,0,0,0,1.22-9.19c-11.23-17.92-19.26-31.13-25-40.7C108.09,45.44,102.89,36.6,94.81,36Z"/><path class="cls-1" d="M89.76,135.38C82.83,152,77.18,165,73.77,172.94c-.8,1.85-2.53,5.86-6.11,6.92a7.49,7.49,0,0,1-6.78-1.49c-2.62-2.21-2.78-5.66-2.89-7.88a21.22,21.22,0,0,1,2.1-10.05c7.19-15.08,14.36-41.2,15.35-40.81.15.06.15.73-.61,3.58"/><path class="cls-1" d="M134.28,110.71l17.1,70.65"/><ellipse class="cls-1" cx="123.16" cy="26.74" rx="16.51" ry="17.05"/><text class="cls-2" transform="translate(43.88 226.69)">SENIOR<tspan x="-6.74" y="38.4">(65+ yrs)</tspan></text></svg>